<svg width="120" height="120" viewBox="0 0 120 120" fill="none" xmlns="http://www.w3.org/2000/svg">
<rect width="120" height="120" fill="#1D4ED8"/>
<g clip-path="url(#clip0_202_11)">
<path fill-rule="evenodd" clip-rule="evenodd" d="M35 20C32.2386 20 30 22.2386 30 25V95C30 97.7614 32.2386 100 35 100H85C87.7614 100 90 97.7614 90 95V40H75C72.2386 40 70 37.7614 70 35V20H35ZM50 67.5C50 67.6961 49.9887 67.8895 49.9668 68.0797L66.8565 78.6116C67.7153 77.9164 68.809 77.5 70 77.5C72.7614 77.5 75 79.7386 75 82.5C75 85.2614 72.7614 87.5 70 87.5C67.2386 87.5 65 85.2614 65 82.5C65 82.3906 65.0035 82.282 65.0104 82.1744L47.951 71.5367C47.1239 72.1424 46.1037 72.5 45 72.5C42.2386 72.5 40 70.2614 40 67.5C40 64.7386 42.2386 62.5 45 62.5C45.9643 62.5 46.8648 62.773 47.6285 63.2459L65.0481 53.1963C65.0164 52.9687 65 52.7363 65 52.5C65 49.7386 67.2386 47.5 70 47.5C72.7614 47.5 75 49.7386 75 52.5C75 55.2614 72.7614 57.5 70 57.5C68.9383 57.5 67.9539 57.1691 67.1444 56.6048L49.9095 66.5479C49.9689 66.8561 50 67.1744 50 67.5ZM88 35L75 22V35H88Z" fill="white"/>
</g>
<defs>
<clipPath id="clip0_202_11">
<rect width="60" height="80" fill="white" transform="translate(30 20)"/>
</clipPath>
</defs>
</svg>
