<svg width="512" height="120" viewBox="0 0 512 120" fill="none" xmlns="http://www.w3.org/2000/svg">
<path fill-rule="evenodd" clip-rule="evenodd" d="M5 0C2.23858 0 0 2.23858 0 5V115C0 117.761 2.23858 120 5 120H85C87.7614 120 90 117.761 90 115V30H65C62.2386 30 60 27.7614 60 25V0H5ZM30 71.25C30 71.915 29.9134 72.5598 29.751 73.1738L54.5263 88.6228C55.8948 87.1625 57.8409 86.25 60.0001 86.25C64.1423 86.25 67.5001 89.6079 67.5001 93.75C67.5001 97.8921 64.1423 101.25 60.0001 101.25C55.858 101.25 52.5001 97.8921 52.5001 93.75C52.5001 93.2103 52.5571 92.6839 52.6655 92.1764L27.7288 76.6268C26.3779 77.9408 24.5334 78.75 22.5 78.75C18.3579 78.75 15 75.3921 15 71.25C15 67.1079 18.3579 63.75 22.5 63.75C24.3397 63.75 26.0247 64.4124 27.3295 65.5117L52.7903 50.823C52.6013 50.1646 52.5001 49.4691 52.5001 48.75C52.5001 44.6079 55.858 41.25 60.0001 41.25C64.1423 41.25 67.5001 44.6079 67.5001 48.75C67.5001 52.8921 64.1423 56.25 60.0001 56.25C58.0223 56.25 56.2233 55.4844 54.8833 54.2335L29.5979 68.821C29.8586 69.5828 30 70.3999 30 71.25ZM87 22.5L67.5 2.99999V22.5H87Z" fill="url(#paint0_linear_25_2)"/>
<path d="M110.183 99V43.7273H123.543V65.9119H145.322V43.7273H158.655V99H145.322V76.7884H123.543V99H110.183ZM180.241 99.7017C177.596 99.7017 175.248 99.2609 173.197 98.3793C171.164 97.4796 169.553 96.1302 168.366 94.331C167.196 92.5137 166.612 90.2377 166.612 87.5028C166.612 85.1998 167.016 83.2566 167.826 81.6733C168.636 80.09 169.751 78.8035 171.173 77.8139C172.594 76.8243 174.231 76.0777 176.085 75.5739C177.938 75.0521 179.917 74.7012 182.022 74.5213C184.379 74.3054 186.277 74.0805 187.717 73.8466C189.156 73.5947 190.2 73.2438 190.847 72.794C191.513 72.3262 191.846 71.6695 191.846 70.8239V70.6889C191.846 69.3035 191.369 68.233 190.416 67.4773C189.462 66.7216 188.176 66.3438 186.556 66.3438C184.811 66.3438 183.408 66.7216 182.346 67.4773C181.284 68.233 180.61 69.2765 180.322 70.608L168.15 70.1761C168.51 67.6572 169.436 65.4081 170.93 63.429C172.441 61.4318 174.51 59.8665 177.137 58.733C179.782 57.5814 182.958 57.0057 186.664 57.0057C189.309 57.0057 191.747 57.3205 193.978 57.9503C196.209 58.562 198.152 59.4616 199.808 60.6491C201.463 61.8187 202.74 63.258 203.64 64.9673C204.558 66.6766 205.016 68.6288 205.016 70.8239V99H192.602V93.2244H192.278C191.54 94.6278 190.596 95.8153 189.444 96.7869C188.31 97.7585 186.97 98.4872 185.423 98.973C183.893 99.4588 182.166 99.7017 180.241 99.7017ZM184.316 91.0653C185.738 91.0653 187.015 90.7775 188.149 90.2017C189.3 89.6259 190.218 88.8343 190.901 87.8267C191.585 86.8011 191.927 85.6136 191.927 84.2642V80.3239C191.549 80.5218 191.09 80.7017 190.551 80.8636C190.029 81.0256 189.453 81.1785 188.823 81.3224C188.194 81.4664 187.546 81.5923 186.88 81.7003C186.214 81.8082 185.576 81.9072 184.964 81.9972C183.722 82.1951 182.661 82.5009 181.779 82.9148C180.916 83.3286 180.25 83.8684 179.782 84.5341C179.332 85.1818 179.107 85.9555 179.107 86.8551C179.107 88.2225 179.593 89.2661 180.565 89.9858C181.554 90.7055 182.805 91.0653 184.316 91.0653ZM250.798 70.2031L238.68 70.527C238.554 69.6634 238.212 68.8987 237.654 68.233C237.097 67.5492 236.368 67.0185 235.468 66.6406C234.587 66.2448 233.561 66.0469 232.392 66.0469C230.862 66.0469 229.558 66.3527 228.478 66.9645C227.417 67.5762 226.895 68.4039 226.913 69.4474C226.895 70.2571 227.219 70.9588 227.884 71.5526C228.568 72.1463 229.783 72.6231 231.528 72.983L239.517 74.4943C243.655 75.286 246.732 76.5994 248.747 78.4347C250.78 80.2699 251.805 82.6989 251.823 85.7216C251.805 88.5644 250.96 91.0384 249.286 93.1435C247.631 95.2486 245.364 96.8859 242.485 98.0554C239.607 99.2069 236.314 99.7827 232.607 99.7827C226.688 99.7827 222.019 98.5682 218.6 96.1392C215.2 93.6922 213.257 90.4176 212.771 86.3153L225.806 85.9915C226.094 87.5028 226.841 88.6544 228.046 89.446C229.252 90.2377 230.79 90.6335 232.661 90.6335C234.353 90.6335 235.729 90.3187 236.791 89.6889C237.852 89.0592 238.392 88.2225 238.41 87.179C238.392 86.2434 237.978 85.4967 237.169 84.9389C236.359 84.3632 235.09 83.9134 233.363 83.5895L226.13 82.2131C221.974 81.4574 218.879 80.063 216.846 78.0298C214.813 75.9787 213.805 73.3698 213.823 70.2031C213.805 67.4323 214.543 65.0663 216.036 63.1051C217.53 61.1259 219.653 59.6146 222.406 58.571C225.159 57.5275 228.406 57.0057 232.149 57.0057C237.762 57.0057 242.188 58.1842 245.427 60.5412C248.666 62.8802 250.456 66.1009 250.798 70.2031ZM273.038 75.358V99H259.841V43.7273H272.607V65.1562H273.065C274.001 62.6013 275.53 60.6042 277.653 59.1648C279.794 57.7254 282.412 57.0057 285.507 57.0057C288.422 57.0057 290.959 57.6534 293.118 58.9489C295.277 60.2263 296.95 62.0346 298.138 64.3736C299.343 66.7126 299.937 69.4474 299.919 72.5781V99H286.722V75.169C286.74 72.866 286.164 71.0668 284.994 69.7713C283.825 68.4759 282.178 67.8281 280.055 67.8281C278.67 67.8281 277.446 68.134 276.385 68.7457C275.341 69.3395 274.523 70.1941 273.929 71.3097C273.353 72.4252 273.056 73.7746 273.038 75.358ZM324.818 99.5938C321.759 99.5938 318.979 98.8021 316.478 97.2188C313.977 95.6354 311.98 93.2604 310.487 90.0938C308.994 86.9271 308.247 82.9957 308.247 78.2997C308.247 73.4238 309.021 69.4115 310.568 66.2628C312.115 63.1141 314.139 60.7841 316.64 59.2727C319.159 57.7614 321.867 57.0057 324.764 57.0057C326.941 57.0057 328.803 57.3835 330.351 58.1392C331.898 58.8769 333.175 59.8305 334.183 61C335.191 62.1695 335.955 63.384 336.477 64.6435H336.747V43.7273H349.944V99H336.882V92.2798H336.477C335.919 93.5573 335.128 94.7538 334.102 95.8693C333.076 96.9848 331.79 97.8845 330.243 98.5682C328.713 99.2519 326.905 99.5938 324.818 99.5938ZM329.406 89.3111C331.007 89.3111 332.375 88.8613 333.508 87.9616C334.642 87.044 335.514 85.7576 336.126 84.1023C336.738 82.447 337.044 80.5038 337.044 78.2727C337.044 76.0057 336.738 74.0535 336.126 72.4162C335.532 70.7789 334.66 69.5194 333.508 68.6378C332.375 67.7562 331.007 67.3153 329.406 67.3153C327.769 67.3153 326.383 67.7651 325.25 68.6648C324.116 69.5644 323.253 70.8329 322.659 72.4702C322.083 74.1075 321.795 76.0417 321.795 78.2727C321.795 80.5038 322.092 82.447 322.686 84.1023C323.28 85.7576 324.134 87.044 325.25 87.9616C326.383 88.8613 327.769 89.3111 329.406 89.3111ZM379.161 99.7827C374.807 99.7827 371.065 98.892 367.934 97.1108C364.821 95.3116 362.419 92.8106 360.728 89.608C359.055 86.3873 358.218 82.6539 358.218 78.4077C358.218 74.1435 359.055 70.41 360.728 67.2074C362.419 63.9867 364.821 61.4858 367.934 59.7045C371.065 57.9053 374.807 57.0057 379.161 57.0057C383.516 57.0057 387.249 57.9053 390.362 59.7045C393.492 61.4858 395.894 63.9867 397.568 67.2074C399.259 70.41 400.105 74.1435 400.105 78.4077C400.105 82.6539 399.259 86.3873 397.568 89.608C395.894 92.8106 393.492 95.3116 390.362 97.1108C387.249 98.892 383.516 99.7827 379.161 99.7827ZM379.242 89.8239C380.826 89.8239 382.166 89.3381 383.264 88.3665C384.361 87.3949 385.198 86.0455 385.774 84.3182C386.367 82.5909 386.664 80.5937 386.664 78.3267C386.664 76.0237 386.367 74.0085 385.774 72.2812C385.198 70.554 384.361 69.2045 383.264 68.233C382.166 67.2614 380.826 66.7756 379.242 66.7756C377.605 66.7756 376.22 67.2614 375.086 68.233C373.971 69.2045 373.116 70.554 372.522 72.2812C371.946 74.0085 371.659 76.0237 371.659 78.3267C371.659 80.5937 371.946 82.5909 372.522 84.3182C373.116 86.0455 373.971 87.3949 375.086 88.3665C376.22 89.3381 377.605 89.8239 379.242 89.8239ZM427.736 99.7827C423.364 99.7827 419.613 98.883 416.482 97.0838C413.369 95.2846 410.976 92.7836 409.303 89.581C407.63 86.3603 406.793 82.6359 406.793 78.4077C406.793 74.1615 407.63 70.437 409.303 67.2344C410.994 64.0137 413.396 61.5038 416.509 59.7045C419.64 57.9053 423.373 57.0057 427.709 57.0057C431.542 57.0057 434.879 57.6984 437.722 59.0838C440.583 60.4692 442.814 62.4304 444.415 64.9673C446.034 67.4863 446.889 70.446 446.979 73.8466H434.645C434.393 71.7235 433.674 70.0592 432.486 68.8537C431.317 67.6482 429.787 67.0455 427.898 67.0455C426.369 67.0455 425.028 67.4773 423.877 68.3409C422.725 69.1866 421.826 70.446 421.178 72.1193C420.548 73.7746 420.233 75.8258 420.233 78.2727C420.233 80.7197 420.548 82.7888 421.178 84.4801C421.826 86.1534 422.725 87.4219 423.877 88.2855C425.028 89.1312 426.369 89.554 427.898 89.554C429.122 89.554 430.201 89.2931 431.137 88.7713C432.09 88.2495 432.873 87.4848 433.485 86.4773C434.096 85.4517 434.483 84.2102 434.645 82.7528H446.979C446.853 86.1714 445.998 89.1581 444.415 91.7131C442.85 94.268 440.646 96.2562 437.803 97.6776C434.978 99.081 431.622 99.7827 427.736 99.7827ZM491.445 70.2031L479.327 70.527C479.201 69.6634 478.859 68.8987 478.301 68.233C477.743 67.5492 477.015 67.0185 476.115 66.6406C475.234 66.2448 474.208 66.0469 473.038 66.0469C471.509 66.0469 470.205 66.3527 469.125 66.9645C468.064 67.5762 467.542 68.4039 467.56 69.4474C467.542 70.2571 467.866 70.9588 468.531 71.5526C469.215 72.1463 470.43 72.6231 472.175 72.983L480.163 74.4943C484.302 75.286 487.378 76.5994 489.394 78.4347C491.427 80.2699 492.452 82.6989 492.47 85.7216C492.452 88.5644 491.607 91.0384 489.933 93.1435C488.278 95.2486 486.011 96.8859 483.132 98.0554C480.253 99.2069 476.961 99.7827 473.254 99.7827C467.335 99.7827 462.666 98.5682 459.247 96.1392C455.847 93.6922 453.904 90.4176 453.418 86.3153L466.453 85.9915C466.741 87.5028 467.488 88.6544 468.693 89.446C469.899 90.2377 471.437 90.6335 473.308 90.6335C475 90.6335 476.376 90.3187 477.438 89.6889C478.499 89.0592 479.039 88.2225 479.057 87.179C479.039 86.2434 478.625 85.4967 477.815 84.9389C477.006 84.3632 475.737 83.9134 474.01 83.5895L466.777 82.2131C462.621 81.4574 459.526 80.063 457.493 78.0298C455.46 75.9787 454.452 73.3698 454.47 70.2031C454.452 67.4323 455.19 65.0663 456.683 63.1051C458.177 61.1259 460.3 59.6146 463.053 58.571C465.805 57.5275 469.053 57.0057 472.796 57.0057C478.409 57.0057 482.835 58.1842 486.074 60.5412C489.313 62.8802 491.103 66.1009 491.445 70.2031Z" fill="black"/>
<defs>
<linearGradient id="paint0_linear_25_2" x1="1.13994e-07" y1="2.25" x2="87.75" y2="120" gradientUnits="userSpaceOnUse">
<stop stop-color="#3E61FF"/>
<stop offset="1" stop-color="#0010FF"/>
</linearGradient>
</defs>
</svg>
