<svg xmlns="http://www.w3.org/2000/svg" viewBox="0 0 60 80">

<g transform="translate(0,-952.36218)">

<path d="M 0 952.362 L 0 1032.337 L 59.982 1032.31 L 59.8 970.752 L 43.854 970.752 C 42.753 970.752 41.861 969.838 41.86 968.709 L 41.86 952.362 L 0 952.362 Z M 45.847 954.405 L 45.847 966.665 L 57.807 966.665 L 45.847 954.405 Z M 39.867 984.034 C 42.62 984.034 44.85 986.321 44.85 989.142 C 44.85 991.964 42.62 994.25 39.867 994.25 C 38.734 994.25 37.715 993.851 36.877 993.197 L 24.886 1000.891 C 24.903 1001.064 24.917 1001.226 24.917 1001.402 C 24.917 1001.579 24.903 1001.741 24.886 1001.913 L 36.909 1009.575 C 37.74 1008.939 38.75 1008.554 39.867 1008.554 C 42.62 1008.554 44.85 1010.841 44.85 1013.662 C 44.85 1016.484 42.62 1018.77 39.867 1018.77 C 37.115 1018.77 34.884 1016.484 34.884 1013.662 C 34.884 1013.486 34.898 1013.324 34.914 1013.151 L 22.923 1005.457 C 22.086 1006.111 21.068 1006.51 19.933 1006.51 C 17.182 1006.51 14.95 1004.224 14.95 1001.402 C 14.95 998.581 17.182 996.294 19.933 996.294 C 21.052 996.294 22.061 996.679 22.893 997.315 L 34.915 989.621 C 34.901 989.46 34.885 989.307 34.885 989.142 C 34.885 986.321 37.115 984.034 39.868 984.034 L 39.867 984.034 Z" fill="#0010FF" style=""></path>

</g>

</svg>
