<svg width="60" height="80" viewBox="0 0 60 80" fill="none" xmlns="http://www.w3.org/2000/svg">
<path fill-rule="evenodd" clip-rule="evenodd" d="M5 0C2.23858 0 0 2.23858 0 5V75C0 77.7614 2.23858 80 5 80H55C57.7614 80 60 77.7614 60 75V20H45C42.2386 20 40 17.7614 40 15V0H5ZM20 47.5C20 47.6961 19.9887 47.8895 19.9668 48.0797L36.8565 58.6116C37.7153 57.9164 38.809 57.5 40 57.5C42.7614 57.5 45 59.7386 45 62.5C45 65.2614 42.7614 67.5 40 67.5C37.2386 67.5 35 65.2614 35 62.5C35 62.3906 35.0035 62.282 35.0104 62.1744L17.951 51.5367C17.1239 52.1424 16.1037 52.5 15 52.5C12.2386 52.5 10 50.2614 10 47.5C10 44.7386 12.2386 42.5 15 42.5C15.9643 42.5 16.8648 42.773 17.6285 43.2459L35.0481 33.1963C35.0164 32.9687 35 32.7363 35 32.5C35 29.7386 37.2386 27.5 40 27.5C42.7614 27.5 45 29.7386 45 32.5C45 35.2614 42.7614 37.5 40 37.5C38.9383 37.5 37.9539 37.1691 37.1444 36.6048L19.9095 46.5479C19.9689 46.8561 20 47.1744 20 47.5ZM58 15L45 2V15H58Z" fill="#0010FF"/>
</svg>
