<svg width="120" height="120" viewBox="0 0 120 120" fill="none" xmlns="http://www.w3.org/2000/svg">
<path fill-rule="evenodd" clip-rule="evenodd" d="M25 7C22.2386 7 20 9.23857 20 12V108.667C20 111.428 22.2386 113.667 25 113.667H95C97.7614 113.667 100 111.428 100 108.667V33.6667H78.3333C75.5719 33.6667 73.3333 31.4281 73.3333 28.6667V7H25ZM46.6667 70.3333C46.6667 70.8431 46.6095 71.3394 46.5011 71.8164L68.6259 85.6126C69.8318 84.4101 71.4958 83.6667 73.3333 83.6667C77.0152 83.6667 80 86.6514 80 90.3333C80 94.0152 77.0152 97 73.3333 97C69.6514 97 66.6667 94.0152 66.6667 90.3333C66.6667 89.9358 66.7015 89.5465 66.7681 89.1681L44.4803 75.2702C43.2966 76.345 41.7248 77 40 77C36.3181 77 33.3333 74.0152 33.3333 70.3333C33.3333 66.6514 36.3181 63.6667 40 63.6667C41.5498 63.6667 42.9761 64.1955 44.1083 65.0826L66.865 51.9539C66.7354 51.4351 66.6667 50.8923 66.6667 50.3333C66.6667 46.6514 69.6514 43.6667 73.3333 43.6667C77.0152 43.6667 80 46.6514 80 50.3333C80 54.0152 77.0152 57 73.3333 57C71.6593 57 70.1294 56.383 68.9586 55.364L46.3791 68.3904C46.5661 69.0051 46.6667 69.6575 46.6667 70.3333ZM97.3333 27L80 9.66667V27H97.3333Z" fill="url(#paint0_linear_362_6)"/>
<defs>
<linearGradient id="paint0_linear_362_6" x1="20" y1="9" x2="98" y2="113.667" gradientUnits="userSpaceOnUse">
<stop stop-color="#3E61FF"/>
<stop offset="1" stop-color="#0010FF"/>
</linearGradient>
</defs>
</svg>
