<svg
  width="24"
  height="24"
  viewBox="0 0 24 24"
  fill="none"
  xmlns="http://www.w3.org/2000/svg"
>
  <path
    fill-rule="evenodd"
    clip-rule="evenodd"
    d="M15.1309 15.4482C14.6676 17.1774 12.8902 18.2036 11.1611 17.7403C10.59 17.5872 10.0967 17.2916 9.70788 16.9021L9.52427 16.7185L10.9583 16.7182C11.2024 16.7182 11.4003 16.5202 11.4002 16.2761C11.4002 16.032 11.2022 15.8342 10.9581 15.8342L8.45729 15.8346C8.34006 15.8347 8.22764 15.8813 8.14476 15.9642C8.06188 16.0471 8.01533 16.1595 8.01536 16.2767L8.01588 18.7766C8.01593 19.0207 8.21387 19.2186 8.45798 19.2185C8.7021 19.2185 8.89995 19.0206 8.8999 18.7765L8.8996 17.344L9.08221 17.5266C9.57786 18.0231 10.2071 18.3998 10.9323 18.5941C13.133 19.1838 15.3951 17.8778 15.9848 15.677C16.048 15.4413 15.9081 15.1989 15.6723 15.1357C15.4365 15.0725 15.1941 15.2125 15.1309 15.4482ZM15.8552 13.2545C15.9381 13.1716 15.9846 13.0591 15.9846 12.9419L15.9842 10.4419C15.9842 10.1978 15.7863 9.99996 15.5421 10C15.298 10 15.1002 10.198 15.1002 10.4421L15.1004 11.8747L14.9179 11.6921C14.4222 11.1956 13.7928 10.8188 13.0677 10.6245C10.867 10.0348 8.60486 11.3408 8.01517 13.5416C7.95199 13.7774 8.09192 14.0197 8.32772 14.0829C8.56351 14.1461 8.80588 14.0062 8.86906 13.7704C9.33239 12.0412 11.1098 11.0151 12.8389 11.4784C13.41 11.6314 13.9034 11.9271 14.2922 12.3166L14.4755 12.5L13.0423 12.5C12.7981 12.5 12.6002 12.6979 12.6002 12.942C12.6002 13.1861 12.7981 13.384 13.0423 13.384H15.5426C15.6599 13.384 15.7723 13.3374 15.8552 13.2545Z"
    fill="#0F172A"
  />
  <path
    d="M19.5 14.25V11.625C19.5 9.76104 17.989 8.25 16.125 8.25H14.625C14.0037 8.25 13.5 7.74632 13.5 7.125V5.625C13.5 3.76104 11.989 2.25 10.125 2.25H8.25M10.5 2.25H5.625C5.00368 2.25 4.5 2.75368 4.5 3.375V20.625C4.5 21.2463 5.00368 21.75 5.625 21.75H18.375C18.9963 21.75 19.5 21.2463 19.5 20.625V11.25C19.5 6.27944 15.4706 2.25 10.5 2.25Z"
    stroke="#0F172A"
    stroke-width="1.5"
    stroke-linecap="round"
    stroke-linejoin="round"
  />
</svg>